# xmcd
#
# Track frame offsets:
#	150
#	17920
#	33477
#	55681
#	70101
#	90002
#	109669
#	122025
#	139910
#	161467
#	174830
#	191279
#	205612
#	217338
#	231943
#	247954
#
# Disc length: 3607 seconds
# Revision: 0
# Processed by: cddbd v1.5.2PL0 Copyright (c) Steve Scherf et al.
# Submitted via: dBpowerAMP V12.0
#
DISCID=cf0e1510
DTITLE=Various Artist - The Music Is You: A Tribute to John Denver
DYEAR=2013
DGENRE=Folk
TTITLE0=My Morning Jacket - Leaving on a Jet Plane
TTITLE1=Dave Matthews - Take Me to Tomorrow
TTITLE2=Kathleen Edwards - All of My Memories
TTITLE3=Sharon Van Etten and J. Mascis - Prisoners
TTITLE4=Train - Sunshine on My Shoulders
TTITLE5=Old Crow Medicine Show - Back Home Again
TTITLE6=Lucinda Williams - This Old Guitar
TTITLE7=Amos Lee - Some Days Are Diamonds
TTITLE8=Allen Stone - Rocky Mountain High
TTITLE9=Brett Dennen and Milow - Annie's Song
TTITLE10=Evan Dando - Looking for Space
TTITLE11=Brandi Carlile and Emmylou Harris - Take Me Home, Country Roads
TTITLE12=Blind Pilot - The Eagle and the Hawk
TTITLE13=Mary Chapin Carpenter - I Guess He'd Rather Be in Colorado
TTITLE14=Josh Ritter and Barnstart! - Darcy Farrow
TTITLE15=Edward Sharpe and the Magnetic Zeros - Wooden Indian
EXTD=
EXTT0=
EXTT1=
EXTT2=
EXTT3=
EXTT4=
EXTT5=
EXTT6=
EXTT7=
EXTT8=
EXTT9=
EXTT10=
EXTT11=
EXTT12=
EXTT13=
EXTT14=
EXTT15=
PLAYORDER=
